<svg width="32" height="32" viewBox="0 0 32 32" fill="none" xmlns="http://www.w3.org/2000/svg">
<g clip-path="url(#clip0_38_75)">
<path d="M26.3333 0H5.66667C2.53705 0 0 2.60211 0 5.81197V26.188C0 29.3979 2.53705 32 5.66667 32H26.3333C29.4629 32 32 29.3979 32 26.188V5.81197C32 2.60211 29.4629 0 26.3333 0Z" fill="#49021F"/>
<path d="M11.7772 10.2489V23.0685C11.7772 23.2027 11.7169 23.2698 11.5961 23.2697H9.16095C9.05347 23.2697 8.99982 23.2026 9 23.0685V10.2489C9 10.1416 9.06036 10.0879 9.18109 10.0878H11.6162C11.6381 10.0847 11.6604 10.0868 11.6813 10.0938C11.7023 10.1007 11.7213 10.1125 11.7369 10.1281C11.7526 10.1438 11.7643 10.1628 11.7713 10.1837C11.7783 10.2047 11.7803 10.227 11.7772 10.2489Z" fill="#FF3366"/>
<path d="M18.982 23.471C18.0557 23.485 17.1379 23.2925 16.2953 22.9074C15.5104 22.5442 14.8542 21.9512 14.4136 21.2069C13.9573 20.449 13.7292 19.4998 13.7294 18.3592C13.7218 17.4355 13.9578 16.5262 14.4136 15.7228C14.8832 14.9045 15.5736 14.2349 16.406 13.7908C17.278 13.3078 18.3312 13.0663 19.5656 13.0663C19.6326 13.0663 19.7198 13.0697 19.8272 13.0764C19.9344 13.0833 20.0619 13.0933 20.2096 13.1066V9.14195C20.2096 9.04823 20.2499 9.00107 20.3304 9.00107H22.8661C22.8825 8.99873 22.8992 9.00024 22.9149 9.00547C22.9307 9.01071 22.9449 9.01953 22.9567 9.03125C22.9684 9.04296 22.9772 9.05724 22.9825 9.07296C22.9877 9.08868 22.9892 9.1054 22.9869 9.1218V21.0157C22.9869 21.244 22.9969 21.4922 23.017 21.7603C23.0372 22.0288 23.054 22.2703 23.0674 22.4848C23.0698 22.5266 23.0596 22.5682 23.0381 22.6041C23.0165 22.64 22.9846 22.6686 22.9466 22.6861C22.2924 22.9589 21.611 23.1613 20.914 23.2898C20.2767 23.4074 19.6301 23.4681 18.982 23.471ZM20.2096 20.9754V15.4813C20.1008 15.4519 19.9897 15.4317 19.8776 15.4209C19.7405 15.4072 19.6027 15.4004 19.465 15.4008C18.9766 15.396 18.494 15.5063 18.0562 15.7228C17.6299 15.9348 17.2658 16.2537 16.9997 16.6486C16.7245 17.0511 16.587 17.581 16.5871 18.2384C16.5773 18.6771 16.6489 19.1139 16.7984 19.5264C16.92 19.8589 17.1123 20.161 17.3619 20.4119C17.6009 20.6428 17.8903 20.8151 18.2072 20.9151C18.5419 21.0235 18.8917 21.0778 19.2436 21.0761C19.4313 21.0761 19.6057 21.0694 19.7668 21.056C19.9168 21.0446 20.0652 21.0177 20.2096 20.9754Z" fill="#FF3366"/>
</g>
<defs>
<clipPath id="clip0_38_75">
<rect width="32" height="32" fill="white"/>
</clipPath>
</defs>
</svg>
